<svg xmlns="http://www.w3.org/2000/svg" width="19" height="16" viewBox="0 0 19 16">
    <g fill="#000" fill-rule="nonzero" stroke="#000" stroke-width=".5">
        <path d="M1 9.957V15.3c0 .127.116.243.243.243h16.514A.252.252 0 0 0 18 15.3V9.957a.252.252 0 0 0-.243-.243h-2.904a.253.253 0 0 0-.246.243c0 .128.117.245.246.243h2.661v4.857H1.486V10.2h2.66a.253.253 0 0 0 .247-.243.252.252 0 0 0-.246-.243H1.243A.242.242 0 0 0 1 9.957z"/>
        <path d="M9.204 1.06L5.075 4.946a.25.25 0 0 0-.011.345c.089.093.252.1.345.012l3.719-3.499V12.9a.243.243 0 0 0 .485 0V1.804l3.719 3.499a.253.253 0 0 0 .345-.012.247.247 0 0 0-.011-.345L9.537 1.06a.26.26 0 0 0-.334 0z"/>
    </g>
</svg>
